<?xml version="1.0" standalone="no"?><!DOCTYPE svg PUBLIC "-//W3C//DTD SVG 1.1//EN" "http://www.w3.org/Graphics/SVG/1.1/DTD/svg11.dtd"><svg height="1024" node-id="1" sillyvg="true" template-height="1024" template-width="1024" version="1.1" viewBox="0 0 1024 1024" width="1024" xmlns="http://www.w3.org/2000/svg" xmlns:xlink="http://www.w3.org/1999/xlink"><defs node-id="68"></defs><path d="M 353.89 194.83 L 670.78 194.83 L 670.78 247.65 L 776.41 247.65 L 776.41 300.46 L 829.22 300.46 L 829.22 353.28 L 882.04 353.28 L 882.04 670.16 L 829.22 670.16 L 829.22 722.98 L 776.41 722.98 L 776.40 775.79 L 723.59 775.79 L 670.78 775.79 L 670.78 828.61 L 353.89 828.61 L 353.89 775.79 L 301.08 775.79 L 248.26 775.79 L 248.26 722.98 L 195.45 722.98 L 195.45 670.16 L 142.63 670.16 L 142.63 353.28 L 195.45 353.28 L 195.45 300.46 L 248.26 300.46 L 248.26 247.65 L 353.89 247.65 Z" fill="#fde385" fill-rule="nonzero" node-id="70" stroke="none" target-height="633.77997" target-width="739.41003" target-x="142.63" target-y="194.83"></path><path d="M 301.08 194.83 L 353.89 194.83 L 353.89 247.64 L 301.08 247.64 Z" fill="#472712" fill-rule="nonzero" node-id="72" stroke="none" target-height="52.809998" target-width="52.809998" target-x="301.08" target-y="194.83"></path><path d="M 297.08 360.76 L 349.89 360.76 L 349.89 413.57 L 297.08 413.57 Z" fill="#472712" fill-rule="nonzero" node-id="74" stroke="none" target-height="52.810028" target-width="52.809998" target-x="297.08" target-y="360.75998"></path><path d="M 349.89 360.76 L 402.70 360.76 L 402.70 413.57 L 349.89 413.57 Z" fill="#ffffff" fill-rule="nonzero" node-id="76" stroke="none" target-height="52.810028" target-width="52.809998" target-x="349.89" target-y="360.75998"></path><path d="M 297.08 413.57 L 349.89 413.57 L 349.89 466.38 L 297.08 466.38 Z" fill="#472712" fill-rule="nonzero" node-id="78" stroke="none" target-height="52.810028" target-width="52.809998" target-x="297.08" target-y="413.57"></path><path d="M 349.89 413.57 L 402.70 413.57 L 402.70 466.38 L 349.89 466.38 Z" fill="#472712" fill-rule="nonzero" node-id="80" stroke="none" target-height="52.810028" target-width="52.809998" target-x="349.89" target-y="413.57"></path><path d="M 626.19 360.76 L 679.00 360.76 L 679.00 413.57 L 626.19 413.57 Z" fill="#472712" fill-rule="nonzero" node-id="82" stroke="none" target-height="52.810028" target-width="52.809998" target-x="626.19" target-y="360.75998"></path><path d="M 679.00 360.76 L 731.81 360.76 L 731.81 413.57 L 679.00 413.57 Z" fill="#ffffff" fill-rule="nonzero" node-id="84" stroke="none" target-height="52.810028" target-width="52.81006" target-x="679" target-y="360.75998"></path><path d="M 626.19 413.57 L 679.00 413.57 L 679.00 466.38 L 626.19 466.38 Z" fill="#472712" fill-rule="nonzero" node-id="86" stroke="none" target-height="52.810028" target-width="52.809998" target-x="626.19" target-y="413.57"></path><path d="M 679.00 413.57 L 731.81 413.57 L 731.81 466.38 L 679.00 466.38 Z" fill="#472712" fill-rule="nonzero" node-id="88" stroke="none" target-height="52.810028" target-width="52.81006" target-x="679" target-y="413.57"></path><path d="M 248.26 194.83 L 301.07 194.83 L 301.07 247.64 L 248.26 247.64 Z" fill="#472712" fill-rule="nonzero" node-id="90" stroke="none" target-height="52.809998" target-width="52.810013" target-x="248.26" target-y="194.83"></path><path d="M 195.45 247.65 L 248.26 247.65 L 248.26 300.46 L 195.45 300.46 Z" fill="#472712" fill-rule="nonzero" node-id="92" stroke="none" target-height="52.809998" target-width="52.809998" target-x="195.45" target-y="247.65"></path><path d="M 776.41 247.65 L 829.22 247.65 L 829.22 300.46 L 776.41 300.46 Z" fill="#472712" fill-rule="nonzero" node-id="94" stroke="none" target-height="52.809998" target-width="52.809998" target-x="776.41" target-y="247.65"></path><path d="M 142.63 300.46 L 195.44 300.46 L 195.44 353.27 L 142.63 353.27 Z" fill="#472712" fill-rule="nonzero" node-id="96" stroke="none" target-height="52.810028" target-width="52.809998" target-x="142.63" target-y="300.46"></path><path d="M 829.22 300.46 L 882.03 300.46 L 882.03 353.27 L 829.22 353.27 Z" fill="#472712" fill-rule="nonzero" node-id="98" stroke="none" target-height="52.810028" target-width="52.809937" target-x="829.22" target-y="300.46"></path><path d="M 89.82 353.28 L 142.63 353.28 L 142.63 406.09 L 89.82 406.09 Z" fill="#472712" fill-rule="nonzero" node-id="100" stroke="none" target-height="52.810028" target-width="52.810005" target-x="89.82" target-y="353.28"></path><path d="M 89.82 406.09 L 142.63 406.09 L 142.63 458.90 L 89.82 458.90 Z" fill="#472712" fill-rule="nonzero" node-id="102" stroke="none" target-height="52.809967" target-width="52.810005" target-x="89.82" target-y="406.09003"></path><path d="M 89.82 458.91 L 142.63 458.91 L 142.63 511.72 L 89.82 511.72 Z" fill="#472712" fill-rule="nonzero" node-id="104" stroke="none" target-height="52.809967" target-width="52.810005" target-x="89.82" target-y="458.91003"></path><path d="M 89.82 511.72 L 142.63 511.72 L 142.63 564.53 L 89.82 564.53 Z" fill="#472712" fill-rule="nonzero" node-id="106" stroke="none" target-height="52.810028" target-width="52.810005" target-x="89.82" target-y="511.72"></path><path d="M 89.82 564.53 L 142.63 564.53 L 142.63 617.34 L 89.82 617.34 Z" fill="#472712" fill-rule="nonzero" node-id="108" stroke="none" target-height="52.809998" target-width="52.810005" target-x="89.82" target-y="564.53"></path><path d="M 89.82 617.35 L 142.63 617.35 L 142.63 670.16 L 89.82 670.16 Z" fill="#472712" fill-rule="nonzero" node-id="110" stroke="none" target-height="52.809998" target-width="52.810005" target-x="89.82" target-y="617.35"></path><path d="M 142.63 670.16 L 195.44 670.16 L 195.44 722.97 L 142.63 722.97 Z" fill="#472712" fill-rule="nonzero" node-id="112" stroke="none" target-height="52.809998" target-width="52.809998" target-x="142.63" target-y="670.16"></path><path d="M 195.45 722.98 L 248.26 722.98 L 248.26 775.79 L 195.45 775.79 Z" fill="#472712" fill-rule="nonzero" node-id="114" stroke="none" target-height="52.81006" target-width="52.809998" target-x="195.45" target-y="722.98"></path><path d="M 248.26 775.79 L 301.07 775.79 L 301.07 828.60 L 248.26 828.60 Z" fill="#472712" fill-rule="nonzero" node-id="116" stroke="none" target-height="52.809937" target-width="52.810013" target-x="248.26" target-y="775.79004"></path><path d="M 301.08 775.79 L 353.89 775.79 L 353.89 828.60 L 301.08 828.60 Z" fill="#472712" fill-rule="nonzero" node-id="118" stroke="none" target-height="52.809937" target-width="52.809998" target-x="301.08" target-y="775.79004"></path><path d="M 353.89 828.61 L 406.70 828.61 L 406.70 881.42 L 353.89 881.42 Z" fill="#472712" fill-rule="nonzero" node-id="120" stroke="none" target-height="52.809998" target-width="52.810028" target-x="353.89" target-y="828.61"></path><path d="M 406.70 828.61 L 459.51 828.61 L 459.51 881.42 L 406.70 881.42 Z" fill="#472712" fill-rule="nonzero" node-id="122" stroke="none" target-height="52.809998" target-width="52.809967" target-x="406.70004" target-y="828.61"></path><path d="M 459.52 828.61 L 512.33 828.61 L 512.33 881.42 L 459.52 881.42 Z" fill="#472712" fill-rule="nonzero" node-id="124" stroke="none" target-height="52.809998" target-width="52.810028" target-x="459.52" target-y="828.61"></path><path d="M 512.33 828.61 L 565.14 828.61 L 565.14 881.42 L 512.33 881.42 Z" fill="#472712" fill-rule="nonzero" node-id="126" stroke="none" target-height="52.809998" target-width="52.809998" target-x="512.33" target-y="828.61"></path><path d="M 565.15 828.61 L 617.96 828.61 L 617.96 881.42 L 565.15 881.42 Z" fill="#472712" fill-rule="nonzero" node-id="128" stroke="none" target-height="52.809998" target-width="52.809998" target-x="565.15" target-y="828.61"></path><path d="M 617.96 828.61 L 670.77 828.61 L 670.77 881.42 L 617.96 881.42 Z" fill="#472712" fill-rule="nonzero" node-id="130" stroke="none" target-height="52.809998" target-width="52.809998" target-x="617.96" target-y="828.61"></path><path d="M 670.78 775.79 L 723.59 775.79 L 723.59 828.60 L 670.78 828.60 Z" fill="#472712" fill-rule="nonzero" node-id="132" stroke="none" target-height="52.809937" target-width="52.809998" target-x="670.78" target-y="775.79004"></path><path d="M 723.59 775.79 L 776.40 775.79 L 776.40 828.60 L 723.59 828.60 Z" fill="#472712" fill-rule="nonzero" node-id="134" stroke="none" target-height="52.809937" target-width="52.809998" target-x="723.59" target-y="775.79004"></path><path d="M 776.41 722.98 L 829.22 722.98 L 829.22 775.79 L 776.41 775.79 Z" fill="#472712" fill-rule="nonzero" node-id="136" stroke="none" target-height="52.81006" target-width="52.809998" target-x="776.41" target-y="722.98"></path><path d="M 829.22 670.16 L 882.03 670.16 L 882.03 722.97 L 829.22 722.97 Z" fill="#472712" fill-rule="nonzero" node-id="138" stroke="none" target-height="52.809998" target-width="52.809937" target-x="829.22" target-y="670.16"></path><path d="M 882.04 617.35 L 934.85 617.35 L 934.85 670.16 L 882.04 670.16 Z" fill="#472712" fill-rule="nonzero" node-id="140" stroke="none" target-height="52.809998" target-width="52.809937" target-x="882.04004" target-y="617.35"></path><path d="M 882.04 564.53 L 934.85 564.53 L 934.85 617.34 L 882.04 617.34 Z" fill="#472712" fill-rule="nonzero" node-id="142" stroke="none" target-height="52.809998" target-width="52.809937" target-x="882.04004" target-y="564.53"></path><path d="M 882.04 511.72 L 934.85 511.72 L 934.85 564.53 L 882.04 564.53 Z" fill="#472712" fill-rule="nonzero" node-id="144" stroke="none" target-height="52.810028" target-width="52.809937" target-x="882.04004" target-y="511.72"></path><path d="M 882.04 458.91 L 934.85 458.91 L 934.85 511.72 L 882.04 511.72 Z" fill="#472712" fill-rule="nonzero" node-id="146" stroke="none" target-height="52.809967" target-width="52.809937" target-x="882.04004" target-y="458.91003"></path><path d="M 882.04 406.09 L 934.85 406.09 L 934.85 458.90 L 882.04 458.90 Z" fill="#472712" fill-rule="nonzero" node-id="148" stroke="none" target-height="52.809967" target-width="52.809937" target-x="882.04004" target-y="406.09003"></path><path d="M 882.04 353.28 L 934.85 353.28 L 934.85 406.09 L 882.04 406.09 Z" fill="#472712" fill-rule="nonzero" node-id="150" stroke="none" target-height="52.810028" target-width="52.809937" target-x="882.04004" target-y="353.28"></path><path d="M 353.89 142.02 L 406.70 142.02 L 406.70 194.83 L 353.89 194.83 Z" fill="#472712" fill-rule="nonzero" node-id="152" stroke="none" target-height="52.809998" target-width="52.810028" target-x="353.89" target-y="142.02"></path><path d="M 406.70 142.02 L 459.51 142.02 L 459.51 194.83 L 406.70 194.83 Z" fill="#472712" fill-rule="nonzero" node-id="154" stroke="none" target-height="52.809998" target-width="52.809967" target-x="406.70004" target-y="142.02"></path><path d="M 459.52 142.02 L 512.33 142.02 L 512.33 194.83 L 459.52 194.83 Z" fill="#472712" fill-rule="nonzero" node-id="156" stroke="none" target-height="52.809998" target-width="52.810028" target-x="459.52" target-y="142.02"></path><path d="M 512.33 142.02 L 565.14 142.02 L 565.14 194.83 L 512.33 194.83 Z" fill="#472712" fill-rule="nonzero" node-id="158" stroke="none" target-height="52.809998" target-width="52.809998" target-x="512.33" target-y="142.02"></path><path d="M 461.52 413.75 L 514.33 413.75 L 514.33 466.56 L 461.52 466.56 Z" fill="#472712" fill-rule="nonzero" node-id="160" stroke="none" target-height="52.809998" target-width="52.810028" target-x="461.52" target-y="413.75"></path><path d="M 514.33 413.75 L 567.14 413.75 L 567.14 466.56 L 514.33 466.56 Z" fill="#472712" fill-rule="nonzero" node-id="162" stroke="none" target-height="52.809998" target-width="52.809998" target-x="514.33" target-y="413.75"></path><path d="M 461.52 572.12 L 514.33 572.12 L 514.33 624.93 L 461.52 624.93 Z" fill="#472712" fill-rule="nonzero" node-id="164" stroke="none" target-height="52.809998" target-width="52.810028" target-x="461.52" target-y="572.12"></path><path d="M 514.33 572.12 L 567.14 572.12 L 567.14 624.93 L 514.33 624.93 Z" fill="#472712" fill-rule="nonzero" node-id="166" stroke="none" target-height="52.809998" target-width="52.809998" target-x="514.33" target-y="572.12"></path><path d="M 461.52 466.56 L 514.33 466.56 L 514.33 519.37 L 461.52 519.37 Z" fill="#d19b33" fill-rule="nonzero" node-id="168" stroke="none" target-height="52.809998" target-width="52.810028" target-x="461.52" target-y="466.56"></path><path d="M 408.71 466.57 L 461.52 466.57 L 461.52 519.38 L 408.71 519.38 Z" fill="#472712" fill-rule="nonzero" node-id="170" stroke="none" target-height="52.809998" target-width="52.809998" target-x="408.71" target-y="466.57"></path><path d="M 408.71 519.38 L 461.52 519.38 L 461.52 572.19 L 408.71 572.19 Z" fill="#472712" fill-rule="nonzero" node-id="172" stroke="none" target-height="52.809998" target-width="52.809998" target-x="408.71" target-y="519.38"></path><path d="M 514.33 466.56 L 567.14 466.56 L 567.14 519.37 L 514.33 519.37 Z" fill="#d19b33" fill-rule="nonzero" node-id="174" stroke="none" target-height="52.809998" target-width="52.809998" target-x="514.33" target-y="466.56"></path><path d="M 461.52 519.37 L 514.33 519.37 L 514.33 572.18 L 461.52 572.18 Z" fill="#d19b33" fill-rule="nonzero" node-id="176" stroke="none" target-height="52.809998" target-width="52.810028" target-x="461.52" target-y="519.37"></path><path d="M 514.33 519.37 L 567.14 519.37 L 567.14 572.18 L 514.33 572.18 Z" fill="#d19b33" fill-rule="nonzero" node-id="178" stroke="none" target-height="52.809998" target-width="52.809998" target-x="514.33" target-y="519.37"></path><path d="M 567.15 466.56 L 619.96 466.56 L 619.96 519.37 L 567.15 519.37 Z" fill="#472712" fill-rule="nonzero" node-id="180" stroke="none" target-height="52.809998" target-width="52.809998" target-x="567.15" target-y="466.56"></path><path d="M 567.15 519.37 L 619.96 519.37 L 619.96 572.18 L 567.15 572.18 Z" fill="#472712" fill-rule="nonzero" node-id="182" stroke="none" target-height="52.809998" target-width="52.809998" target-x="567.15" target-y="519.37"></path><path d="M 565.15 142.02 L 617.96 142.02 L 617.96 194.83 L 565.15 194.83 Z" fill="#472712" fill-rule="nonzero" node-id="184" stroke="none" target-height="52.809998" target-width="52.809998" target-x="565.15" target-y="142.02"></path><path d="M 617.96 142.02 L 670.77 142.02 L 670.77 194.83 L 617.96 194.83 Z" fill="#472712" fill-rule="nonzero" node-id="186" stroke="none" target-height="52.809998" target-width="52.809998" target-x="617.96" target-y="142.02"></path><path d="M 670.78 194.83 L 723.59 194.83 L 723.59 247.64 L 670.78 247.64 Z" fill="#472712" fill-rule="nonzero" node-id="188" stroke="none" target-height="52.809998" target-width="52.809998" target-x="670.78" target-y="194.83"></path><path d="M 723.59 194.83 L 776.40 194.83 L 776.40 247.64 L 723.59 247.64 Z" fill="#472712" fill-rule="nonzero" node-id="190" stroke="none" target-height="52.809998" target-width="52.809998" target-x="723.59" target-y="194.83"></path><path d="M 461.52 492.97 L 514.33 492.97 L 514.33 545.78 L 461.52 545.78 Z" fill="#472712" fill-rule="nonzero" node-id="192" stroke="none" target-height="52.81006" target-width="52.810028" target-x="461.52" target-y="492.96997"></path><path d="M 514.33 492.97 L 567.14 492.97 L 567.14 545.78 L 514.33 545.78 Z" fill="#472712" fill-rule="nonzero" node-id="194" stroke="none" target-height="52.81006" target-width="52.809998" target-x="514.33" target-y="492.96997"></path></svg>